<?xml version="1.0" encoding="utf-8"?>
<!-- Generator: Adobe Illustrator 21.0.0, SVG Export Plug-In . SVG Version: 6.00 Build 0)  -->
<svg version="1.1" id="Layer_2" xmlns="http://www.w3.org/2000/svg" xmlns:xlink="http://www.w3.org/1999/xlink" x="0px" y="0px"
	 viewBox="0 0 44 44" style="enable-background:new 0 0 44 44;" xml:space="preserve">
<g>
	<path d="M35.5,17.9C35.6,18,35.8,18,36,18c0.3,0,0.7-0.2,0.9-0.5l3-5c0.3-0.5,0.1-1.1-0.3-1.4c-0.5-0.3-1.1-0.1-1.4,0.3l-3,5
		C34.9,17,35,17.6,35.5,17.9z"/>
	<path d="M35.5,11.1c-0.5-0.3-1.1-0.1-1.4,0.3l-3,5c-0.3,0.5-0.1,1.1,0.3,1.4C31.6,18,31.8,18,32,18c0.3,0,0.7-0.2,0.9-0.5l3-5
		C36.1,12,36,11.4,35.5,11.1z"/>
	<path d="M31.5,11.1c-0.5-0.3-1.1-0.1-1.4,0.3l-3,5c-0.3,0.5-0.1,1.1,0.3,1.4C27.6,18,27.8,18,28,18c0.3,0,0.7-0.2,0.9-0.5l3-5
		C32.1,12,32,11.4,31.5,11.1z"/>
	<path d="M40,6H28c-0.6,0-1,0.4-1,1s0.4,1,1,1h12c1.1,0,2,0.9,2,2v7v4h-8c-0.6,0-1,0.4-1,1s0.4,1,1,1h5c-0.3,0.7-0.4,1.5-0.2,2.2
		L42,38c0,0.1,0,0.1,0,0.2c0,0.4-0.3,0.8-0.8,0.8h-8.7c-0.2,0-0.4-0.2-0.4-0.4c0-0.1,0-0.2,0.1-0.3l0.8-0.8c0.7-0.7,1-1.8,0.8-2.7
		l-2.3-11.4C31.1,22,29.9,21,28.5,21H25V6c0-1.7-1.3-3-3-3s-3,1.3-3,3v2h-2c0-1.7-1.3-3-3-3s-3,1.3-3,3v1.2L9,9.7V9c0-1.7-1.3-3-3-3
		S3,7.3,3,9c0,0.6,0.4,1,1,1s1-0.4,1-1c0-0.6,0.4-1,1-1s1,0.4,1,1v10c0,0.6-0.4,1-1,1s-1-0.4-1-1v-7c0-0.6-0.4-1-1-1H3
		c-1.7,0-3,1.3-3,3s1.3,3,3,3v2c0,1.7,1.3,3,3,3s3-1.3,3-3v-0.7l2,0.5V20c0,1.7,1.3,3,3,3s3-1.3,3-3h3c0.6,0,1-0.4,1-1V6
		c0-0.6,0.4-1,1-1s1,0.4,1,1v16c0,0.6-0.4,1-1,1s-1-0.4-1-1c0-0.6-0.4-1-1-1s-1,0.4-1,1c0,1.7,1.3,3,3,3c1.3,0,2.4-0.8,2.8-2h3.7
		c0.5,0,0.9,0.3,1,0.8l0.3,1.3c-1.5,0.2-2.7,1.4-2.7,3v1c0,1.7,1.3,3,3,3h1h0.1l0.7,3.2c0.1,0.3,0,0.7-0.3,0.9l-0.8,0.8
		c-0.4,0.5-0.7,1.1-0.7,1.7c0,1.3,1.1,2.4,2.4,2.4h8.7c1.5,0,2.8-1.2,2.8-2.8c0-0.2,0-0.5-0.1-0.7l-3.1-12.8c-0.1-0.4,0-0.9,0.2-1.2
		s0.7-0.5,1.1-0.5H43c0.6,0,1-0.4,1-1v-5v-7C44,7.8,42.2,6,40,6z M3,15c-0.6,0-1-0.4-1-1s0.4-1,1-1V15z M15,20c0,0.6-0.4,1-1,1
		s-1-0.4-1-1v-6c0-0.6-0.4-1-1-1s-1,0.4-1,1v2.7l-2-0.5v-4.4l3.2-0.8c0.4-0.1,0.8-0.5,0.8-1V8c0-0.6,0.4-1,1-1s1,0.4,1,1V20z M17,18
		v-8h2v8H17z M29,29v-1c0-0.6,0.4-1,1-1h0.1l0.6,3H30C29.4,30,29,29.6,29,29z"/>
</g>
</svg>
