<?xml version="1.0" encoding="utf-8"?>
<!-- Generator: Adobe Illustrator 21.0.0, SVG Export Plug-In . SVG Version: 6.00 Build 0)  -->
<svg version="1.1" id="Layer_2" xmlns="http://www.w3.org/2000/svg" xmlns:xlink="http://www.w3.org/1999/xlink" x="0px" y="0px"
	 viewBox="0 0 44 44" style="enable-background:new 0 0 44 44;" xml:space="preserve">
<g>
	<path d="M12.7,20.4c-0.4,0.4-0.3,1.1,0.1,1.4c0.2,0.2,0.4,0.2,0.6,0.2c0.3,0,0.6-0.1,0.8-0.4C16.2,19.3,19,18,22,18
		c0.6,0,1-0.4,1-1s-0.4-1-1-1C18.4,16,15,17.6,12.7,20.4z"/>
	<path d="M11.7,24c-0.5-0.1-1.1,0.2-1.2,0.7C10.2,25.8,10,26.9,10,28c0,0.6,0.4,1,1,1s1-0.4,1-1c0-0.9,0.1-1.8,0.4-2.7
		C12.5,24.7,12.2,24.2,11.7,24z"/>
	<path d="M16.6,4.9l2,1C18.7,6,18.8,6,19,6c0.4,0,0.7-0.2,0.9-0.6c0.2-0.5,0-1.1-0.4-1.3l-2-1c-0.5-0.2-1.1,0-1.3,0.4
		C15.9,4,16.1,4.6,16.6,4.9z"/>
	<path d="M25,6c0.1,0,0.3,0,0.4-0.1l2-1c0.5-0.2,0.7-0.8,0.4-1.3c-0.2-0.5-0.8-0.7-1.3-0.4l-2,1c-0.5,0.2-0.7,0.8-0.4,1.3
		C24.3,5.8,24.6,6,25,6z"/>
	<path d="M22,4c0.6,0,1-0.4,1-1V1c0-0.6-0.4-1-1-1s-1,0.4-1,1v2C21,3.6,21.4,4,22,4z"/>
	<path d="M30,14.1V10c0-0.4-0.3-0.8-0.7-0.9c-1.7-0.6-3.9-1-6.3-1V6c0-0.6-0.4-1-1-1s-1,0.4-1,1v3c0,0.6,0.4,1,1,1
		c2.2,0,4.3,0.3,6,0.7v4c0,0.4,0.3,0.8,0.6,0.9C33.2,18.1,36,22.8,36,28c0,7.7-6.3,14-14,14S8,35.7,8,28s6.3-14,14-14
		c0.9,0,1.9,0.1,2.8,0.3c0.5,0.1,1.1-0.2,1.2-0.8c0.1-0.5-0.2-1.1-0.8-1.2c-1-0.2-2.1-0.3-3.2-0.3c-2.1,0-4.1,0.4-6,1.2v-2.4
		c0.6-0.2,1.4-0.3,2.2-0.5c0.5-0.1,0.9-0.6,0.8-1.1c-0.1-0.5-0.6-0.9-1.1-0.8c-1.2,0.2-2.2,0.4-3.2,0.8C14.3,9.2,14,9.6,14,10v4.2
		C9.2,16.9,6,22.1,6,28c0,8.8,7.2,16,16,16s16-7.2,16-16C38,22.3,35,17,30,14.1z"/>
</g>
</svg>
