<?xml version="1.0" encoding="utf-8"?>
<!-- Generator: Adobe Illustrator 21.0.0, SVG Export Plug-In . SVG Version: 6.00 Build 0)  -->
<svg version="1.1" id="Layer_2" xmlns="http://www.w3.org/2000/svg" xmlns:xlink="http://www.w3.org/1999/xlink" x="0px" y="0px"
	 viewBox="0 0 44 44" style="enable-background:new 0 0 44 44;" xml:space="preserve">
<g>
	<path d="M12,42H4c-0.6,0-1,0.4-1,1s0.4,1,1,1h8c0.6,0,1-0.4,1-1S12.6,42,12,42z"/>
	<path d="M12,16.8V13c0,0,0,0,0,0c0,0,0,0,0,0c-0.1-4.7-1.3-9.2-3.1-12.5c-0.4-0.7-1.4-0.7-1.7,0C5.3,3.8,4.1,8.3,4,13c0,0,0,0,0,0
		c0,0,0,0,0,0v3.8l-1.5,2.9c-0.2,0.3-0.3,0.7-0.4,1.1c-0.1,0.3,0,0.6,0.2,0.9C2.5,21.9,2.8,22,3.1,22H9c0.6,0,1-0.4,1-1s-0.4-1-1-1
		H4.6l1-2h4.8l1.3,2.6c0.2,0.4,0.3,0.9,0.3,1.3V38c0,0.6-0.4,1-1,1H5c-0.6,0-1-0.4-1-1V25c0-0.6-0.4-1-1-1s-1,0.4-1,1v13
		c0,1.7,1.3,3,3,3h6c1.7,0,3-1.3,3-3V21.9c0-0.8-0.2-1.5-0.5-2.2L12,16.8z M8,3.2C8.8,5.1,9.8,8,10,12H6C6.2,8,7.2,5.1,8,3.2z M6,16
		v-2h4v2H6z"/>
	<path d="M26,42h-8c-0.6,0-1,0.4-1,1s0.4,1,1,1h8c0.6,0,1-0.4,1-1S26.6,42,26,42z"/>
	<path d="M26,16.8V13c0,0,0,0,0,0c0,0,0,0,0,0c-0.1-4.7-1.3-9.2-3.1-12.5c-0.4-0.7-1.4-0.7-1.7,0C19.3,3.8,18.1,8.3,18,13
		c0,0,0,0,0,0c0,0,0,0,0,0v3.8l-1.5,2.9c-0.2,0.3-0.3,0.7-0.4,1.1c-0.1,0.3,0,0.6,0.2,0.9c0.2,0.2,0.5,0.4,0.8,0.4H23
		c0.6,0,1-0.4,1-1s-0.4-1-1-1h-4.4l1-2h4.8l1.3,2.6c0.2,0.4,0.3,0.9,0.3,1.3V38c0,0.6-0.4,1-1,1h-6c-0.6,0-1-0.4-1-1V25
		c0-0.6-0.4-1-1-1s-1,0.4-1,1v13c0,1.7,1.3,3,3,3h6c1.7,0,3-1.3,3-3V21.9c0-0.8-0.2-1.5-0.5-2.2L26,16.8z M22,3.2
		c0.8,1.9,1.8,4.8,2,8.8H20C20.2,8,21.2,5.1,22,3.2z M20,16v-2h4v2H20z"/>
	<path d="M40,42h-8c-0.6,0-1,0.4-1,1s0.4,1,1,1h8c0.6,0,1-0.4,1-1S40.6,42,40,42z"/>
	<path d="M41.5,19.7L40,16.8V13c0,0,0,0,0,0c0,0,0,0,0,0C40,8.3,38.8,3.7,36.9,0.5c-0.4-0.6-1.4-0.6-1.7,0C33.2,3.7,32.1,8.3,32,13
		c0,0,0,0,0,0c0,0,0,0,0,0v3.8l-1.5,2.9c-0.2,0.3-0.3,0.7-0.4,1.1c-0.1,0.3,0,0.6,0.2,0.9c0.2,0.2,0.5,0.4,0.8,0.4H37
		c0.6,0,1-0.4,1-1s-0.4-1-1-1h-4.4l1-2h4.8l1.3,2.6c0.2,0.4,0.3,0.9,0.3,1.3V38c0,0.6-0.4,1-1,1h-6c-0.6,0-1-0.4-1-1V25
		c0-0.6-0.4-1-1-1s-1,0.4-1,1v13c0,1.7,1.3,3,3,3h6c1.7,0,3-1.3,3-3V21.9C42,21.2,41.8,20.4,41.5,19.7z M36,3.2C36.8,5,37.8,8,38,12
		H34C34.2,8,35.2,5,36,3.2z M34,16v-2h4v2H34z"/>
</g>
</svg>
