<?xml version="1.0" encoding="utf-8"?>
<!-- Generator: Adobe Illustrator 21.0.0, SVG Export Plug-In . SVG Version: 6.00 Build 0)  -->
<svg version="1.1" id="Layer_2" xmlns="http://www.w3.org/2000/svg" xmlns:xlink="http://www.w3.org/1999/xlink" x="0px" y="0px"
	 viewBox="0 0 44 44" style="enable-background:new 0 0 44 44;" xml:space="preserve">
<g>
	<path d="M35,37c-2.2,0-4,1.8-4,4c0,0.6-0.4,1-1,1c-1.1,0-2-0.9-2-2v-6.7c3.7-0.5,7-1.6,7-3.6c0-2.1-3.6-3.1-7-3.6V25
		c0-0.6,0.4-1,1-1c2.4,0,4.5-1.4,5.5-3.6c0.2-0.5,0-1.1-0.5-1.3s-1.1,0-1.3,0.5C32,21.1,30.6,22,29,22c-1.7,0-3,1.3-3,3v6.6
		c-1.2,0.1-2.5,0.2-4,0.2s-2.8-0.1-4-0.2V26c0-0.6-0.4-1-1-1s-1,0.4-1,1v0.1c-3.4,0.5-7,1.5-7,3.6c0,2,3.3,3.1,7,3.6V40
		c0,1.1-0.9,2-2,2c-0.6,0-1-0.4-1-1c0-2.2-1.8-4-4-4c-0.6,0-1,0.4-1,1s0.4,1,1,1c1.1,0,2,0.9,2,2c0,1.7,1.3,3,3,3c2.2,0,4-1.8,4-4
		v-6.4c1.4,0.1,2.8,0.2,4,0.2s2.6-0.1,4-0.2V40c0,2.2,1.8,4,4,4c1.7,0,3-1.3,3-3c0-1.1,0.9-2,2-2c0.6,0,1-0.4,1-1S35.6,37,35,37z
		 M11,29.7c0.3-0.4,1.8-1.1,5-1.6v3.2C13.1,30.9,11.4,30.2,11,29.7z M28,28.1c3.2,0.5,4.7,1.2,5,1.6c-0.4,0.5-2.1,1.2-5,1.6V28.1z"
		/>
	<path d="M43,42h-1c-0.6,0-1.2-0.4-1.6-1c-0.7-1.2-2-2-3.5-2c-0.6,0-1,0.4-1,1s0.4,1,1,1c0.7,0,1.4,0.4,1.7,1c0.7,1.3,2,2,3.3,2h1
		c0.6,0,1-0.4,1-1S43.6,42,43,42z"/>
	<path d="M7,39c-1.4,0-2.7,0.8-3.5,2c-0.4,0.6-1,1-1.6,1H1c-0.6,0-1,0.4-1,1s0.4,1,1,1h1c1.3,0,2.6-0.8,3.3-2c0.4-0.6,1-1,1.7-1
		c0.6,0,1-0.4,1-1S7.6,39,7,39z"/>
	<path d="M9,18.7c0.4,3,2.9,5.3,6,5.3c3.2-0.1,5.9-2.7,6-6c0-0.6-0.4-1-1-1c-0.5,0-1,0.4-1,1c0,2.2-1.8,4-4,4c-2.2,0-4-1.8-4-4
		c0,0,0-0.1,0-0.1c0-0.5-0.4-0.9-0.8-1C7.8,16.5,6,14.5,6,12c0-2.8,2.2-5,5-5c0.3,0,0.6,0,0.9,0.1c0.3,0,0.5,0,0.8-0.2
		s0.4-0.4,0.4-0.7C13.4,3.8,15.5,2,18,2c1.2,0,2.4,0.5,3.3,1.3c0.4,0.3,1,0.3,1.3,0C23.6,2.5,24.8,2,26,2c1.4,0,2.8,0.6,3.7,1.7
		c0.4,0.4,1,0.4,1.4,0.1c0.4-0.4,0.4-1,0.1-1.4C29.9,0.9,28,0,26,0c-1.4,0-2.8,0.4-4,1.3C20.8,0.4,19.4,0,18,0c-3.1,0-5.8,2.1-6.7,5
		C7.3,4.8,4,8,4,12C4,15.2,6.1,17.9,9,18.7z"/>
	<path d="M26,12c0,0.6,0.4,1,1,1s1-0.4,1-1c0-2.8,2.2-5,5-5s5,2.2,5,5c0,2.1-1.3,4-3.3,4.7c-0.5,0.2-0.8,0.8-0.6,1.3
		c0.1,0.4,0.5,0.7,0.9,0.7c0.1,0,0.2,0,0.3-0.1c2.8-1,4.7-3.6,4.7-6.6c0-3.9-3.1-7-7-7S26,8.1,26,12z"/>
	<path d="M11,8c-2.2,0-4,1.8-4,4c0,0.6,0.4,1,1,1s1-0.4,1-1c0-1.1,0.9-2,2-2c0.6,0,1-0.4,1-1S11.6,8,11,8z"/>
</g>
</svg>
