<?xml version="1.0" encoding="utf-8"?>
<!-- Generator: Adobe Illustrator 21.0.0, SVG Export Plug-In . SVG Version: 6.00 Build 0)  -->
<svg version="1.1" id="Layer_2" xmlns="http://www.w3.org/2000/svg" xmlns:xlink="http://www.w3.org/1999/xlink" x="0px" y="0px"
	 viewBox="0 0 44 44" style="enable-background:new 0 0 44 44;" xml:space="preserve">
<g>
	<path d="M19.4,22.4c-0.5,0.3-0.6,0.9-0.3,1.4c0.2,0.3,0.5,0.4,0.8,0.4c0.2,0,0.4-0.1,0.6-0.2c1.3-0.9,2.9-1.3,4.4-1.3
		c0.6,0,1-0.4,1-1s-0.4-1-1-1C23,20.8,21.1,21.3,19.4,22.4z"/>
	<path d="M16.5,25.5c-0.6,1-1.1,2.1-1.3,3.3c-0.1,0.5,0.2,1.1,0.8,1.2c0.1,0,0.1,0,0.2,0c0.5,0,0.9-0.3,1-0.8
		c0.2-0.9,0.5-1.8,1.1-2.7c0.3-0.5,0.1-1.1-0.3-1.4C17.4,24.9,16.8,25,16.5,25.5z"/>
	<path d="M30,18.2V8c0-1.7-1.3-3-3-3h-3c-0.6,0-1,0.4-1,1s0.4,1,1,1h3c0.6,0,1,0.4,1,1v4h-8h-4V8c0-0.6,0.4-1,1-1h3c0.6,0,1-0.4,1-1
		c0-3.3-2.7-6-6-6S9,2.7,9,6c0,1.9,0.9,3.7,2.4,4.8c0.4,0.3,1.1,0.2,1.4-0.2s0.2-1.1-0.2-1.4C11.6,8.4,11,7.3,11,6c0-2.2,1.8-4,4-4
		c1.9,0,3.4,1.3,3.9,3H17c-1.7,0-3,1.3-3,3v4.7L6.8,23.4C6.3,24.3,6,25.2,6,26.2V32c0,1.7,1.3,3,3,3c0.6,0,1-0.4,1-1s-0.4-1-1-1
		c-0.6,0-1-0.4-1-1v-5.8c0-0.6,0.2-1.2,0.5-1.7l7-10.5H19v2c0,0.6,0.4,1,1,1s1-0.4,1-1v-2h7v4.8c0,0.4,0.2,0.8,0.6,0.9
		c4.4,1.7,7.4,6,7.4,10.7C36,36.8,30.8,42,24.5,42S13,36.8,13,30.5S18.2,19,24.5,19c0.6,0,1-0.4,1-1s-0.4-1-1-1
		C17.1,17,11,23.1,11,30.5S17.1,44,24.5,44S38,37.9,38,30.5C38,25.2,34.8,20.3,30,18.2z"/>
</g>
</svg>
