<?xml version="1.0" encoding="utf-8"?>
<!-- Generator: Adobe Illustrator 21.0.0, SVG Export Plug-In . SVG Version: 6.00 Build 0)  -->
<svg version="1.1" id="Layer_2" xmlns="http://www.w3.org/2000/svg" xmlns:xlink="http://www.w3.org/1999/xlink" x="0px" y="0px"
	 viewBox="0 0 44 44" style="enable-background:new 0 0 44 44;" xml:space="preserve">
<path d="M43.7,0.3c-0.4-0.4-1-0.4-1.4,0L40,2.5c0-0.1-0.1-0.1-0.1-0.2l-2.2-2.1c-0.4-0.4-1-0.4-1.4,0c-0.4,0.4-0.4,1,0,1.4l2.2,2.1
	c0,0,0.1,0,0.1,0.1L35,7.6l-0.3-0.3C34.5,7.1,34.1,7,33.8,7l-5,1c-0.2,0-0.4,0.1-0.5,0.3l-1.6,1.6c-1-0.2-2,0-2.8,0.8l-4.6,4.6
	c-0.4,0.4-0.4,1,0,1.4l3,3c0.4,0.4,1,0.4,1.4,0s0.4-1,0-1.4L21.4,16l3.9-3.9c0.4-0.4,1-0.4,1.4,0l2.2,2.2c0.4,0.4,0.4,1,0,1.4
	L15.3,29.3l-2,2c-0.1,0.1-0.2,0.2-0.2,0.3l0,0c0,0,0,0,0,0l-4.4,9.7c-0.3,0.6-1.1,0.8-1.6,0.5l-4.5-3C2.2,38.6,2,38.2,2,37.9
	c0-0.3,0.1-0.6,0.3-0.8L7.4,32c0.1-0.1,0.3-0.2,0.5-0.3l0.9-0.5c0,0,0,0,0,0l1.5,1.5c0.2,0.2,0.5,0.3,0.7,0.3s0.5-0.1,0.7-0.3
	c0.4-0.4,0.4-1,0-1.4l-1.4-1.4l1.1-1.6c0.4-0.6,0.6-1.4,0.6-2.1c0-0.5,0.2-0.9,0.5-1.3l5.2-5.2c0.4-0.4,0.4-1,0-1.4s-1-0.4-1.4,0
	l-5.2,5.2c-0.7,0.7-1.1,1.7-1.1,2.7c0,0.4-0.1,0.7-0.3,1l-1.1,1.7c-0.2,0.3-0.4,0.5-0.7,0.6L7,29.9c-0.4,0.2-0.7,0.4-1,0.7l-5.1,5.1
	C0.3,36.3,0,37,0,37.9c0,1,0.5,2,1.4,2.6l4.5,3C6.4,43.8,7,44,7.6,44c1.2,0,2.3-0.7,2.8-1.8l3.8-8.3l3.6,4.3
	c0.5,0.5,1.1,0.8,1.8,0.8c1.3,0,2.4-1.1,2.4-2.4v-0.1c0-0.6-0.2-1.1-0.5-1.5l-2.3-2.7c0,0,0,0,0,0c1.1-1.1,1.2-3,0.2-4.2l0.1-0.1
	c1.8,1.4,4.1,2.1,6.5,2.1c2.4,0,4.8-0.7,6.6-2.2c0.4-0.3,0.5-0.9,0.2-1.3l-2-3c-0.3-0.4-0.9-0.6-1.3-0.3C28.6,23.7,27.3,24,26,24
	c-0.6,0-1,0.4-1,1s0.4,1,1,1h0c1.3,0,2.6-0.2,3.7-0.7l1,1.5c-2.9,1.8-6.9,1.7-9.7-0.3l9.3-9.3c0.8-0.8,1-1.8,0.8-2.8l4.6-4.6l8-8
	C44.1,1.3,44.1,0.7,43.7,0.3z M20,36.5v0.1c0,0.3-0.4,0.5-0.6,0.2l-4-4.8l0.6-0.6l4,4.8C20,36.3,20,36.4,20,36.5z M18.1,30
	c0,0.3-0.1,0.5-0.3,0.7l-0.5-0.6l0.6-0.6C18.1,29.6,18.1,29.8,18.1,30z M30,12.6L28.4,11l1.1-1.1l4-0.8L30,12.6z"/>
</svg>
