<?xml version="1.0" encoding="utf-8"?>
<!-- Generator: Adobe Illustrator 21.0.0, SVG Export Plug-In . SVG Version: 6.00 Build 0)  -->
<svg version="1.1" id="Layer_2" xmlns="http://www.w3.org/2000/svg" xmlns:xlink="http://www.w3.org/1999/xlink" x="0px" y="0px"
	 viewBox="0 0 44 44" style="enable-background:new 0 0 44 44;" xml:space="preserve">
<path d="M43.7,0.3c-0.3-0.3-0.6-0.4-1-0.3C34,2.7,24.3,8.7,16,16.6c-0.4-0.4-1-0.6-1.6-0.6c-1.3,0-2.4,1.1-2.4,2.4
	c0,0.6,0.3,1.3,0.7,1.7l6.6,6.6c0.4,0.4,1,0.4,1.4,0s0.4-1,0-1.4l-6.6-6.6C14,18.6,14,18.5,14,18.4c0-0.3,0.5-0.5,0.7-0.3l11.2,11.2
	c0.1,0.1,0.1,0.2,0.1,0.3c0,0.3-0.5,0.5-0.7,0.3l-2.1-2.1c-0.2-0.2-0.4-0.3-0.7-0.3c0,0,0,0,0,0c-0.3,0-0.5,0.1-0.7,0.3L8,41.6
	c-0.5,0.5-1.5,0.5-2,0L2.4,38C2.2,37.7,2,37.4,2,37s0.2-0.7,0.4-1l3.1-3.1l3.8,3.8C9.5,36.9,9.7,37,10,37s0.5-0.1,0.7-0.3
	c0.4-0.4,0.4-1,0-1.4l-3.8-3.8l1.6-1.6l3.8,3.8c0.2,0.2,0.5,0.3,0.7,0.3s0.5-0.1,0.7-0.3c0.4-0.4,0.4-1,0-1.4l-3.8-3.8l1.6-1.6
	l3.8,3.8c0.2,0.2,0.5,0.3,0.7,0.3s0.5-0.1,0.7-0.3c0.4-0.4,0.4-1,0-1.4l-3.8-3.8l0.8-0.8c0.4-0.4,0.4-1,0-1.4s-1-0.4-1.4,0L1,34.6
	c-0.6,0.6-1,1.5-1,2.4s0.4,1.8,1,2.4L4.6,43c0.6,0.6,1.5,1,2.4,1s1.8-0.4,2.4-1l13.1-13.1l1.4,1.4c0.5,0.5,1.1,0.7,1.7,0.7
	c1.3,0,2.4-1.1,2.4-2.4c0-0.6-0.3-1.3-0.7-1.7L22.4,23l10.3-10.3c0.4-0.4,0.4-1,0-1.4s-1-0.4-1.4,0L21,21.6L17.4,18
	c7.5-7.1,16.1-12.7,24-15.5C39.7,7.4,36,15.4,28.1,24.3c-0.4,0.4-0.3,1,0.1,1.4c0.2,0.2,0.4,0.3,0.7,0.3c0.3,0,0.6-0.1,0.7-0.3
	C38.9,15.2,42.6,5.9,44,1.3C44.1,0.9,44,0.6,43.7,0.3z"/>
</svg>
