<?xml version="1.0" encoding="utf-8"?>
<!-- Generator: Adobe Illustrator 21.0.0, SVG Export Plug-In . SVG Version: 6.00 Build 0)  -->
<svg version="1.1" id="Layer_2" xmlns="http://www.w3.org/2000/svg" xmlns:xlink="http://www.w3.org/1999/xlink" x="0px" y="0px"
	 viewBox="0 0 44 44" style="enable-background:new 0 0 44 44;" xml:space="preserve">
<g>
	<path d="M36,23c-0.6,0-1,0.4-1,1v5c0,1.7-1.3,3-3,3c-0.6,0-1,0.4-1,1c0,5-4,9-9,9s-9-4-9-9s4-9,9-9c3.6,0,6.8,2.1,8.2,5.4
		c0.2,0.5,0.8,0.7,1.3,0.5c0.5-0.2,0.7-0.8,0.5-1.3c-1.8-4-5.7-6.6-10.1-6.6c-6.1,0-11,4.9-11,11s4.9,11,11,11
		c5.8,0,10.5-4.5,11-10.1c2.3-0.5,4-2.5,4-4.9v-5C37,23.4,36.6,23,36,23z"/>
	<circle cx="22" cy="28" r="1"/>
	<circle cx="22" cy="38" r="1"/>
	<circle cx="27" cy="33" r="1"/>
	<circle cx="17" cy="33" r="1"/>
	<ellipse transform="matrix(0.7071 -0.7071 0.7071 0.7071 -13.3553 26.6856)" cx="25.5" cy="29.5" rx="1" ry="1"/>
	<ellipse transform="matrix(0.7071 -0.7071 0.7071 0.7071 -20.4265 23.7575)" cx="18.5" cy="36.5" rx="1" ry="1"/>
	<ellipse transform="matrix(0.7071 -0.7071 0.7071 0.7071 -18.3555 28.7573)" cx="25.5" cy="36.5" rx="1" ry="1"/>
	<ellipse transform="matrix(0.7071 -0.7071 0.7071 0.7071 -15.4264 21.6855)" cx="18.5" cy="29.5" rx="1" ry="1"/>
	<path d="M21,16c0-2.2-1.8-4-4-4s-4,1.8-4,4s1.8,4,4,4S21,18.2,21,16z M15,16c0-1.1,0.9-2,2-2s2,0.9,2,2s-0.9,2-2,2S15,17.1,15,16z"
		/>
	<path d="M31,16c0-2.2-1.8-4-4-4s-4,1.8-4,4s1.8,4,4,4S31,18.2,31,16z M25,16c0-1.1,0.9-2,2-2s2,0.9,2,2s-0.9,2-2,2S25,17.1,25,16z"
		/>
	<path d="M37,11L37,11C36.4,4.9,31.3,0,25,0h-6C12.7,0,7.6,4.9,7.1,11H7c-1.7,0-3,1.3-3,3v4c0,1.7,1.3,3,3,3v8
		c0,0.9,0.2,1.7,0.7,2.5C7.9,31.8,8.2,32,8.5,32c0.2,0,0.3,0,0.5-0.1c0.5-0.3,0.6-0.9,0.4-1.4C9.1,30,9,29.5,9,29v-9v-8
		C9,6.5,13.5,2,19,2h6c5.5,0,10,4.5,10,10v6v2c0,0.6,0.4,1,1,1h1c1.7,0,3-1.3,3-3v-4C40,12.3,38.7,11,37,11z M6,18v-4
		c0-0.6,0.4-1,1-1v6C6.4,19,6,18.6,6,18z M38,18c0,0.6-0.4,1-1,1v-1v-5c0.6,0,1,0.4,1,1V18z"/>
</g>
</svg>
