<?xml version="1.0" encoding="utf-8"?>
<!-- Generator: Adobe Illustrator 21.0.0, SVG Export Plug-In . SVG Version: 6.00 Build 0)  -->
<svg version="1.1" id="Layer_2" xmlns="http://www.w3.org/2000/svg" xmlns:xlink="http://www.w3.org/1999/xlink" x="0px" y="0px"
	 viewBox="0 0 44 44" style="enable-background:new 0 0 44 44;" xml:space="preserve">
<g>
	<path d="M43.7,0.3C43.5,0.1,43.2,0,42.8,0c-0.7,0.1-7.1,1.3-9.5,3.7c-1.6,1.6-1.8,4.2-0.5,6l-0.5,0.5c-0.4,0.4-0.4,1,0,1.4
		c0.2,0.2,0.5,0.3,0.7,0.3s0.5-0.1,0.7-0.3l0.5-0.5c0.8,0.5,1.7,0.8,2.6,0.8c0,0,0.1,0,0.1,0c1.3,0,2.4-0.5,3.3-1.4
		c2.4-2.4,3.6-8.7,3.7-9.5C44,0.9,43.9,0.5,43.7,0.3z M38.9,9.2c-0.5,0.5-1.2,0.8-2,0.8c-0.4,0-0.8-0.1-1.2-0.3l1-1
		c0.4-0.4,0.4-1,0-1.4s-1-0.4-1.4,0l-1,1c-0.5-1.1-0.4-2.3,0.5-3.2c1.3-1.3,4.7-2.3,6.9-2.8C41.2,4.5,40.2,7.9,38.9,9.2z"/>
	<path d="M3.1,32.5C2.9,33,3,33.6,3.5,33.9C4.7,34.6,6.4,35,8,35s3.2-0.4,4.5-1.1c0.5-0.3,0.6-0.9,0.3-1.4c-0.3-0.5-0.9-0.6-1.4-0.3
		c-1.9,1.1-5.1,1.1-7,0C4,31.9,3.4,32,3.1,32.5z"/>
	<path d="M29.7,9.3c-0.4-0.4-1-0.4-1.4,0l-2,2c-0.4,0.4-0.4,1,0,1.4l3,3c0.4,0.4,1,0.4,1.4,0s0.4-1,0-1.4L28.4,12l0.6-0.6l3.6,3.6
		l-5.1,5.1c-0.9,0.9-1.5,2-1.8,3.3l-1.2,4.8c-0.2,0.8-0.6,1.5-1.1,2.1c-1.9,1.1-5,1-6.8-0.1c-2.5-1.5-6.5-1.5-9,0
		C7,30.4,6.9,31,7.1,31.5C7.4,32,8,32.1,8.5,31.9c1.9-1.1,5.1-1.1,7,0c1.3,0.8,2.9,1.1,4.5,1.1c0.2,0,0.4,0,0.6,0L12,41.6
		c-0.5,0.5-1.5,0.5-2,0L2.4,34C2.1,33.7,2,33.4,2,33s0.1-0.7,0.4-1l11.1-11.1c0.6-0.6,1.4-1.1,2.3-1.3l4.8-1.2
		c1.2-0.3,2.4-0.9,3.3-1.8l1.8-1.8c0.4-0.4,0.4-1,0-1.4s-1-0.4-1.4,0l-1.8,1.8c-0.6,0.6-1.4,1.1-2.3,1.3l-4.8,1.2
		c-1.2,0.3-2.4,0.9-3.3,1.8L1,30.6c-0.6,0.6-1,1.5-1,2.4s0.4,1.8,1,2.4L8.6,43c0.6,0.6,1.5,1,2.4,1s1.8-0.4,2.4-1l11.1-11.1
		c0.9-0.9,1.5-2,1.8-3.3l1.2-4.8c0.2-0.9,0.7-1.7,1.3-2.3l5.8-5.8c0.4-0.4,0.4-1,0-1.4L29.7,9.3z"/>
</g>
</svg>
