<?xml version="1.0" encoding="utf-8"?>
<!-- Generator: Adobe Illustrator 21.0.0, SVG Export Plug-In . SVG Version: 6.00 Build 0)  -->
<svg version="1.1" id="Layer_2" xmlns="http://www.w3.org/2000/svg" xmlns:xlink="http://www.w3.org/1999/xlink" x="0px" y="0px"
	 viewBox="0 0 44 44" style="enable-background:new 0 0 44 44;" xml:space="preserve">
<g>
	<circle cx="7" cy="1" r="1"/>
	<path d="M41.2,27.8l-7.5-7.5c-1.4-1.4-3.4-2.3-5.2-2.3h-3.9c-0.8,0-1.6-0.3-2.1-0.9l-3.8-3.8c-0.4-0.4-1-0.4-1.4,0s-0.4,1,0,1.4
		l4,4c0,0,0.1,0.1,0.1,0.1c0.9,0.8,2,1.2,3.2,1.2h3.9c1.2,0,2.8,0.7,3.8,1.7l6.8,6.8l-8.8,8.8c-0.4,0.4-0.4,1,0,1.4
		c0.2,0.2,0.5,0.3,0.7,0.3s0.5-0.1,0.7-0.3l8.7-8.7c1,1.3,1.6,2.9,1.6,4.6c0,4.1-3.4,7.5-7.5,7.5c-2,0-3.9-0.8-5.3-2.2l-7.3-7.3
		l8.8-8.8c0.4-0.4,0.4-1,0-1.4s-1-0.4-1.4,0l-8.6,8.6c-0.4-0.7-0.6-1.6-0.6-2.4v-3.9c0-1.2-0.4-2.3-1.2-3.2c0-0.1-0.1-0.1-0.1-0.1
		l-4-4c-0.4-0.4-1-0.4-1.4,0s-0.4,1,0,1.4l3.8,3.8c0.6,0.6,0.9,1.3,0.9,2.1v3.9c0,1.9,0.7,3.6,2.1,4.9l7.8,7.8
		C29.6,43,32,44,34.5,44c5.2,0,9.5-4.3,9.5-9.5C44,32,43,29.6,41.2,27.8z"/>
	<path d="M14.6,23l-0.7,0.2c-1,0.3-2.2,0-2.9-0.8l-5-5l4.4-1.2c0.8-0.2,1.6-0.7,2.2-1.3l2.5-2.5c0.6-0.6,1-1.3,1.3-2.2l1.2-4.4l5,5
		c0.8,0.8,1.1,1.9,0.8,2.9L23,14.6c-0.2,0.5,0.2,1.1,0.7,1.2c0.5,0.1,1.1-0.2,1.2-0.7l0.2-0.7c0.5-1.7,0-3.6-1.3-4.9l-6.2-6.2
		c-0.3-0.3-0.6-0.3-1-0.3c-0.3,0.1-0.6,0.4-0.7,0.7l-1.7,6c-0.1,0.5-0.4,0.9-0.8,1.3L11,13.6c-0.4,0.4-0.8,0.6-1.3,0.8l-6,1.7
		c-0.3,0.1-0.6,0.4-0.7,0.7c-0.1,0.3,0,0.7,0.3,1l6.2,6.2c1,1,2.2,1.5,3.5,1.5c0.5,0,0.9-0.1,1.4-0.2l0.7-0.2
		c0.5-0.2,0.8-0.7,0.7-1.2C15.6,23.2,15.1,22.9,14.6,23z"/>
	<path d="M4.3,5.7l5,5C9.5,10.9,9.7,11,10,11s0.5-0.1,0.7-0.3c0.4-0.4,0.4-1,0-1.4l-5-5c-0.4-0.4-1-0.4-1.4,0S3.9,5.3,4.3,5.7z"/>
	<path d="M2.3,3.7C2.5,3.9,2.7,4,3,4s0.5-0.1,0.7-0.3c0.4-0.4,0.4-1,0-1.4l-2-2c-0.4-0.4-1-0.4-1.4,0s-0.4,1,0,1.4L2.3,3.7z"/>
	<path d="M8.3,3.7l4,4C12.5,7.9,12.7,8,13,8s0.5-0.1,0.7-0.3c0.4-0.4,0.4-1,0-1.4l-4-4c-0.4-0.4-1-0.4-1.4,0S7.9,3.3,8.3,3.7z"/>
	<circle cx="1" cy="7" r="1"/>
	<path d="M7,14c0.3,0,0.5-0.1,0.7-0.3c0.4-0.4,0.4-1,0-1.4l-4-4c-0.4-0.4-1-0.4-1.4,0s-0.4,1,0,1.4l4,4C6.5,13.9,6.7,14,7,14z"/>
</g>
</svg>
