<?xml version="1.0" encoding="utf-8"?>
<!-- Generator: Adobe Illustrator 21.0.0, SVG Export Plug-In . SVG Version: 6.00 Build 0)  -->
<svg version="1.1" id="Layer_2" xmlns="http://www.w3.org/2000/svg" xmlns:xlink="http://www.w3.org/1999/xlink" x="0px" y="0px"
	 viewBox="0 0 44 44" style="enable-background:new 0 0 44 44;" xml:space="preserve">
<path d="M35.5,14.4c-0.5-0.3-1.1-0.1-1.4,0.4c-0.3,0.5-0.1,1.1,0.4,1.4c0.3,0.2,0.5,0.5,0.5,0.9v1h-6v-1c0-0.6,0.4-1,1-1h2
	c0.6,0,1-0.4,1-1v-4c0-6.1-4.9-11-11-11S11,4.9,11,11v4c0,0.6,0.4,1,1,1h2c0.6,0,1,0.4,1,1v1H9v-1c0-0.4,0.2-0.7,0.5-0.9
	c0.5-0.3,0.6-0.9,0.4-1.4S9,14.1,8.5,14.4C7.6,14.9,7,15.9,7,17v24c0,1.7,1.3,3,3,3h4c1.7,0,3-1.3,3-3V17c0-1.7-1.3-3-3-3h-1v-3
	c0-5,4-9,9-9s9,4,9,9v3h-1c-1.7,0-3,1.3-3,3v24c0,1.7,1.3,3,3,3h4c1.7,0,3-1.3,3-3V17C37,15.9,36.4,14.9,35.5,14.4z M15,20v18H9V20
	H15z M14,42h-4c-0.6,0-1-0.4-1-1v-1h6v1C15,41.6,14.6,42,14,42z M35,20v18h-6V20H35z M34,42h-4c-0.6,0-1-0.4-1-1v-1h6v1
	C35,41.6,34.6,42,34,42z"/>
</svg>
