<?xml version="1.0" encoding="utf-8"?>
<!-- Generator: Adobe Illustrator 21.0.0, SVG Export Plug-In . SVG Version: 6.00 Build 0)  -->
<svg version="1.1" id="Layer_2" xmlns="http://www.w3.org/2000/svg" xmlns:xlink="http://www.w3.org/1999/xlink" x="0px" y="0px"
	 viewBox="0 0 44 44" style="enable-background:new 0 0 44 44;" xml:space="preserve">
<g>
	<path d="M36,25h-3c-0.6,0-1,0.4-1,1s0.4,1,1,1h3c0.6,0,1-0.4,1-1S36.6,25,36,25z"/>
	<path d="M37,29h-3c-0.6,0-1,0.4-1,1s0.4,1,1,1h3c0.6,0,1-0.4,1-1S37.6,29,37,29z"/>
	<path d="M34,34c0,0.6,0.4,1,1,1h3c0.6,0,1-0.4,1-1s-0.4-1-1-1h-3C34.4,33,34,33.4,34,34z"/>
	<path d="M43,14c0.6,0,1-0.4,1-1v-2c0-0.6-0.4-1-1-1c-1.7,0-3-1.3-3-3c0-0.6-0.4-1-1-1h-1V5c0-0.6-0.4-1-1-1s-1,0.4-1,1v1H5V5
		c0-0.6-0.4-1-1-1S3,4.4,3,5v1C1.3,6,0,7.3,0,9v6c0,1.7,1.3,3,3,3h39v3H32c-0.6,0-1,0.4-1,1s0.4,1,1,1h7c-0.3,0.7-0.4,1.5-0.2,2.2
		L42,37c0,0.1,0,0.1,0,0.2c0,0.4-0.3,0.8-0.8,0.8H30.5c-0.2,0-0.4-0.2-0.4-0.4c0-0.1,0-0.2,0.1-0.3l0.8-0.8c0.7-0.7,1-1.8,0.8-2.7
		l-2.3-10.4C29.1,22,27.9,21,26.5,21H5c-0.6,0-1-0.4-1-1c0-0.6-0.4-1-1-1s-1,0.4-1,1c0,1.7,1.3,3,3,3h13c0,3.3,2.7,6,6.1,6H26
		c0.6,0,1-0.4,1-1s-0.4-1-1-1h-2c-2.2,0-4-1.8-4-4h4c0,0,0,0,0,0.1c0,0.4-0.2,0.8-0.6,1.1c-0.4,0.3-0.5,1-0.2,1.4
		c0.2,0.3,0.5,0.4,0.8,0.4c0.2,0,0.4-0.1,0.6-0.2c0.9-0.7,1.4-1.7,1.4-2.8h0.5c0.5,0,0.9,0.3,1,0.8l2.3,10.4c0.1,0.3,0,0.7-0.3,0.9
		l-0.8,0.8c-0.4,0.5-0.7,1.1-0.7,1.7c0,1.3,1.1,2.4,2.4,2.4h10.7c1.5,0,2.8-1.2,2.8-2.8c0-0.2,0-0.5-0.1-0.7l-3.1-11.8
		c-0.1-0.4,0-0.9,0.2-1.2s0.7-0.5,1.1-0.5H43c0.6,0,1-0.4,1-1v-5c0-0.6-0.4-1-1-1h-5v-2c0-0.6-0.4-1-1-1s-1,0.4-1,1v2h-3v-2
		c0-0.6-0.4-1-1-1s-1,0.4-1,1v2h-3v-2c0-0.6-0.4-1-1-1s-1,0.4-1,1v2h-3v-2c0-0.6-0.4-1-1-1s-1,0.4-1,1v2H3c-0.6,0-1-0.4-1-1V9
		c0-0.6,0.4-1,1-1h35.1c0.4,2,1.9,3.5,3.9,3.9V13C42,13.6,42.4,14,43,14z"/>
</g>
</svg>
