<?xml version="1.0" encoding="utf-8"?>
<!-- Generator: Adobe Illustrator 21.0.0, SVG Export Plug-In . SVG Version: 6.00 Build 0)  -->
<svg version="1.1" id="Layer_2" xmlns="http://www.w3.org/2000/svg" xmlns:xlink="http://www.w3.org/1999/xlink" x="0px" y="0px"
	 viewBox="0 0 44 44" style="enable-background:new 0 0 44 44;" xml:space="preserve">
<g>
	<path d="M18.2,18.4c-1.1,1.7-1.7,3.7-1.7,6.3c0,1.5-1.1,2.7-2.5,3.1V1c0-0.6-0.4-1-1-1s-1,0.4-1,1v26.8c-1.4-0.4-2.5-1.6-2.5-3.1
		c0-2.6-0.5-4.6-1.7-6.3c-0.3-0.5-0.9-0.6-1.4-0.3c-0.5,0.3-0.6,0.9-0.3,1.4c0.9,1.4,1.3,3,1.3,5.2c0,1.9,1,3.5,2.5,4.4V41
		c0,1.7,1.3,3,3,3s3-1.3,3-3V29.1c1.5-0.9,2.5-2.6,2.5-4.4c0-2.2,0.4-3.8,1.3-5.2c0.3-0.5,0.2-1.1-0.3-1.4
		C19.1,17.9,18.5,18,18.2,18.4z M14,38h-2v-4h2V38z M13,42c-0.6,0-1-0.4-1-1v-1h2v1C14,41.6,13.6,42,13,42z M14,30v2h-2v-2H14z"/>
	<path d="M37.8,24.4c-0.9-1.4-1.3-3-1.3-5.2c0-1.9-1-3.5-2.5-4.4V3c0-1.7-1.3-3-3-3c-1.7,0-3,1.3-3,3v11.9c-1.5,0.9-2.5,2.6-2.5,4.4
		c0,2.2-0.4,3.8-1.3,5.2c-0.3,0.5-0.2,1.1,0.3,1.4c0.2,0.1,0.4,0.2,0.6,0.2c0.3,0,0.6-0.2,0.8-0.4c1.1-1.7,1.7-3.7,1.7-6.3
		c0-1.5,1.1-2.7,2.5-3.1V43c0,0.6,0.4,1,1,1c0.6,0,1-0.4,1-1V16.2c1.4,0.4,2.5,1.6,2.5,3.1c0,2.6,0.5,4.6,1.7,6.3
		c0.2,0.3,0.5,0.4,0.8,0.4c0.2,0,0.4-0.1,0.6-0.2C38,25.5,38.1,24.9,37.8,24.4z M30,6h2v4h-2V6z M31,2c0.6,0,1,0.4,1,1v1h-2V3
		C30,2.4,30.4,2,31,2z M30,14v-2h2v2H30z"/>
</g>
</svg>
