<?xml version="1.0" encoding="utf-8"?>
<!-- Generator: Adobe Illustrator 21.0.0, SVG Export Plug-In . SVG Version: 6.00 Build 0)  -->
<svg version="1.1" id="Layer_2" xmlns="http://www.w3.org/2000/svg" xmlns:xlink="http://www.w3.org/1999/xlink" x="0px" y="0px"
	 viewBox="0 0 44 44" style="enable-background:new 0 0 44 44;" xml:space="preserve">
<g>
	<circle cx="36" cy="24" r="1"/>
	<circle cx="32" cy="24" r="1"/>
	<circle cx="28" cy="24" r="1"/>
	<path d="M22,30c-1.7,0-3,1.3-3,3s1.3,3,3,3s3-1.3,3-3S23.7,30,22,30z M22,34c-0.6,0-1-0.4-1-1s0.4-1,1-1s1,0.4,1,1S22.6,34,22,34z"
		/>
	<path d="M34,36c1.7,0,3-1.3,3-3s-1.3-3-3-3s-3,1.3-3,3S32.3,36,34,36z M34,32c0.6,0,1,0.4,1,1s-0.4,1-1,1s-1-0.4-1-1S33.4,32,34,32
		z"/>
	<path d="M10,30c-1.7,0-3,1.3-3,3s1.3,3,3,3s3-1.3,3-3S11.7,30,10,30z M10,34c-0.6,0-1-0.4-1-1s0.4-1,1-1s1,0.4,1,1S10.6,34,10,34z"
		/>
	<path d="M43.4,11.1c-0.4-0.2-0.8-0.1-1.1,0.2L41.6,12h-12l-1.2-2.3c-0.5-1-1.5-1.7-2.7-1.7H11V5c0-0.6-0.4-1-1-1S9,4.4,9,5v3H8
		c-1.7,0-3,1.3-3,3v2.4c0,1.4,0.9,2.6,2.3,2.9l5.7,1.4V20H5.9c-1.5,0-2.9,0.8-3.6,2.2l-0.7,1.3c-0.2,0.5,0,1.1,0.4,1.3
		C2.2,25,2.3,25,2.5,25c0.4,0,0.7-0.2,0.9-0.6l0.7-1.3c0.3-0.7,1-1.1,1.8-1.1H14h24.8c0.9,0,1.6,0.5,1.9,1.4l1.3,3.8v2
		c0,0.4-0.1,0.8-0.3,1.2l-0.8,1.8c-0.2-1.6-0.9-3.1-2.1-4.2H39c0.6,0,1-0.4,1-1s-0.4-1-1-1H1c-0.6,0-1,0.4-1,1v2.2
		c0,0.7,0.1,1.4,0.4,2L3,37c0.8,1.8,2.6,3,4.6,3h28.8c2,0,3.8-1.2,4.6-3l2.6-5.8c0.3-0.6,0.4-1.3,0.4-2V27c0-0.1,0-0.2-0.1-0.3
		l-1.3-3.9c-0.5-1.6-2.1-2.7-3.8-2.7H29v-2.1c1.1-0.3,2-1.3,2-2.5c0-0.4-0.1-0.8-0.3-1.2L30.6,14h11l0.7,0.7
		c0.2,0.2,0.4,0.3,0.7,0.3c0.1,0,0.3,0,0.4-0.1c0.4-0.2,0.6-0.5,0.6-0.9v-2C44,11.6,43.8,11.2,43.4,11.1z M39,33c0,2.8-2.2,5-5,5
		s-5-2.2-5-5s2.2-5,5-5S39,30.2,39,33z M29.1,28c-0.4,0.4-0.8,0.9-1.1,1.4c-0.3-0.5-0.7-1-1.1-1.4H29.1z M22,38c-2.8,0-5-2.2-5-5
		s2.2-5,5-5s5,2.2,5,5S24.8,38,22,38z M17.1,28c-0.4,0.4-0.8,0.9-1.1,1.4c-0.3-0.5-0.7-1-1.1-1.4H17.1z M10,38c-2.8,0-5-2.2-5-5
		s2.2-5,5-5s5,2.2,5,5S12.8,38,10,38z M2,29.2V28h3.1c-1.1,1.1-1.9,2.5-2.1,4.2l-0.8-1.8C2.1,30,2,29.6,2,29.2z M14.9,38
		c0.4-0.4,0.8-0.9,1.1-1.4c0.3,0.5,0.7,1,1.1,1.4H14.9z M26.9,38c0.4-0.4,0.8-0.9,1.1-1.4c0.3,0.5,0.7,1,1.1,1.4H26.9z M28.4,16
		c0,0-0.2,0-0.4,0c-0.4,0-0.9,0-1,0h-5c-0.6,0-1,0.4-1,1s0.4,1,1,1h5v2H15v-3c0-0.5-0.3-0.9-0.8-1l-6.5-1.6c-0.4-0.1-0.8-0.5-0.8-1
		V11c0-0.6,0.4-1,1-1h17.8c0.4,0,0.7,0.2,0.9,0.6l2.3,4.6c0,0.1,0.1,0.2,0.1,0.3C29,15.7,28.7,16,28.4,16z"/>
</g>
</svg>
