<?xml version="1.0" encoding="utf-8"?>
<!-- Generator: Adobe Illustrator 21.0.0, SVG Export Plug-In . SVG Version: 6.00 Build 0)  -->
<svg version="1.1" id="Layer_2" xmlns="http://www.w3.org/2000/svg" xmlns:xlink="http://www.w3.org/1999/xlink" x="0px" y="0px"
	 viewBox="0 0 44 44" style="enable-background:new 0 0 44 44;" xml:space="preserve">
<g>
	<path d="M22,15c-5,0-9,4-9,9s4,9,9,9c5,0,9-4,9-9S27,15,22,15z M22,31c-3.9,0-7-3.1-7-7s3.1-7,7-7c3.9,0,7,3.1,7,7S25.9,31,22,31z"
		/>
	<path d="M25,23h-2v-4c0-0.6-0.4-1-1-1s-1,0.4-1,1v5c0,0.6,0.4,1,1,1h3c0.6,0,1-0.4,1-1S25.6,23,25,23z"/>
	<path d="M42,27.2v-6.4c1.2-0.4,2-1.5,2-2.8s-0.8-2.4-2-2.8V9c0-1.7-1.3-3-3-3h-4V3c0-0.6-0.4-1-1-1s-1,0.4-1,1v3h-3.2
		c-0.4-1.2-1.5-2-2.8-2h-4V1c0-0.6-0.4-1-1-1s-1,0.4-1,1v3h-4c-1.3,0-2.4,0.8-2.8,2H11V3c0-0.6-0.4-1-1-1S9,2.4,9,3v3H5
		C3.3,6,2,7.3,2,9v6.2c-1.2,0.4-2,1.5-2,2.8s0.8,2.4,2,2.8v6.4c-1.2,0.4-2,1.5-2,2.8s0.8,2.4,2,2.8V39c0,1.7,1.3,3,3,3h6
		c0.6,0,1-0.4,1-1s-0.4-1-1-1H5c-0.6,0-1-0.4-1-1v-6h6c0.6,0,1-0.4,1-1s-0.4-1-1-1H3c-0.6,0-1-0.4-1-1s0.4-1,1-1h8.1
		c0.7,1.5,1.7,2.8,2.9,3.9V41c0,1.7,1.3,3,3,3h10c1.7,0,3-1.3,3-3v-8.1c1.2-1.1,2.2-2.4,2.9-3.9H41c0.6,0,1,0.4,1,1s-0.4,1-1,1h-7
		c-0.6,0-1,0.4-1,1s0.4,1,1,1h6v6c0,0.6-0.4,1-1,1h-6c-0.6,0-1,0.4-1,1s0.4,1,1,1h6c1.7,0,3-1.3,3-3v-6.2c1.2-0.4,2-1.5,2-2.8
		S43.2,27.6,42,27.2z M3,17h7c0.6,0,1-0.4,1-1s-0.4-1-1-1H4V9c0-0.6,0.4-1,1-1h10c0.6,0,1-0.4,1-1c0-0.6,0.4-1,1-1h10
		c0.6,0,1,0.4,1,1c0,0.6,0.4,1,1,1h10c0.6,0,1,0.4,1,1v6h-6c-0.6,0-1,0.4-1,1s0.4,1,1,1h7c0.6,0,1,0.4,1,1s-0.4,1-1,1h-8.1
		c-0.7-1.5-1.7-2.8-2.9-3.9V11c0-0.6-0.4-1-1-1s-1,0.4-1,1v2.6c-1.8-1-3.8-1.6-6-1.6c-2.2,0-4.2,0.6-6,1.6V11c0-0.6-0.4-1-1-1
		s-1,0.4-1,1v4.1c-1.2,1.1-2.2,2.4-2.9,3.9H3c-0.6,0-1-0.4-1-1S2.4,17,3,17z M4,27v-6h6.4c-0.2,1-0.4,2-0.4,3s0.1,2,0.4,3H4z M28,41
		c0,0.6-0.4,1-1,1H17c-0.6,0-1-0.4-1-1v-6.6c1.8,1,3.8,1.6,6,1.6c2.2,0,4.2-0.6,6-1.6V41z M22,34c-5.5,0-10-4.5-10-10s4.5-10,10-10
		c5.5,0,10,4.5,10,10S27.5,34,22,34z M33.6,21H40v6h-6.4c0.2-1,0.4-2,0.4-3S33.9,22,33.6,21z"/>
</g>
</svg>
