<?xml version="1.0" encoding="utf-8"?>
<!-- Generator: Adobe Illustrator 21.0.0, SVG Export Plug-In . SVG Version: 6.00 Build 0)  -->
<svg version="1.1" id="Layer_2" xmlns="http://www.w3.org/2000/svg" xmlns:xlink="http://www.w3.org/1999/xlink" x="0px" y="0px"
	 viewBox="0 0 44 44" style="enable-background:new 0 0 44 44;" xml:space="preserve">
<g>
	<path d="M23.8,6c0.3-0.2,0.2-0.8-0.2-0.8H23c-0.2,0-0.3-0.1-0.4-0.3l-0.2-0.6c-0.1-0.4-0.7-0.4-0.8,0l-0.2,0.6
		c-0.1,0.2-0.2,0.3-0.4,0.3h-0.6c-0.4,0-0.6,0.5-0.2,0.8l0.5,0.4c0.1,0.1,0.2,0.3,0.2,0.5l-0.2,0.6c-0.1,0.4,0.3,0.7,0.6,0.5
		l0.5-0.4c0.1-0.1,0.3-0.1,0.5,0l0.5,0.4c0.3,0.2,0.8-0.1,0.6-0.5l-0.2-0.6c-0.1-0.2,0-0.4,0.2-0.5L23.8,6z"/>
	<circle cx="19" cy="15" r="1"/>
	<circle cx="25" cy="15" r="1"/>
	<path d="M35,29.4l-5-1V25c0-0.4-0.2-0.7-0.5-0.9c-0.3-0.2-0.7-0.2-1,0L22,27.8l-6.5-3.7c-0.3-0.2-0.7-0.2-1,0
		C14.2,24.3,14,24.6,14,25v3.4l-5,1c-2.3,0.5-4,2.5-4,4.9V41c0,1.7,1.3,3,3,3h28c1.7,0,3-1.3,3-3v-6.7C39,31.9,37.3,29.8,35,29.4z
		 M23,29.6l5-2.9v1.7l-5,2.9V29.6z M16,26.7l5,2.9v1.7l-5-2.9V26.7z M37,41c0,0.6-0.4,1-1,1H8c-0.6,0-1-0.4-1-1v-6.7
		c0-1.4,1-2.7,2.4-2.9l5.7-1.1l5.9,3.4V39c0,0.6,0.4,1,1,1s1-0.4,1-1v-5.4l5.9-3.4l5.7,1.1c1.4,0.3,2.4,1.5,2.4,2.9V41z"/>
	<path d="M21,21h2c0.6,0,1-0.4,1-1s-0.4-1-1-1h-2c-0.6,0-1,0.4-1,1S20.4,21,21,21z"/>
	<path d="M11,13h1.1c0.2,2.2,0.6,4.8,0.6,4.8c0.2,1.7,0.9,3.3,1.9,4.6l0.2,0.3c1.7,2.1,4.3,3.3,7.1,3.3s5.3-1.2,7.1-3.3l0.2-0.3
		c1.1-1.3,1.7-2.9,1.9-4.5c0,0,0.2-1.3,0.4-2.8c0.1-0.5-0.3-1-0.9-1.1c-0.5-0.1-1.1,0.3-1.1,0.9c-0.2,1.5-0.4,2.7-0.4,2.7
		c-0.1,1.3-0.7,2.5-1.5,3.5l-0.2,0.3C26.2,23.1,24.2,24,22,24s-4.2-0.9-5.5-2.6l-0.2-0.3c-0.8-1-1.4-2.2-1.5-3.6
		c0,0-0.6-3.5-0.7-5.6c0-0.5-0.5-0.9-1-0.9h-1c0.5-5,4.8-9,10-9s9.4,4,10,9h-1.1c-0.9,0-1.8-0.2-2.8-0.7c-3.6-1.7-8.5-1.7-12.1,0
		c-0.5,0.2-0.7,0.8-0.5,1.3c0.2,0.5,0.8,0.7,1.3,0.5c3.1-1.5,7.3-1.5,10.4,0c1.2,0.6,2.5,0.9,3.6,0.9H33c0.6,0,1-0.4,1-1
		c0-6.6-5.4-12-12-12S10,5.4,10,12C10,12.6,10.4,13,11,13z"/>
	<path d="M14.8,31l-5,1c-0.5,0.1-0.9,0.6-0.8,1.2c0.1,0.5,0.5,0.8,1,0.8c0.1,0,0.1,0,0.2,0l5-1c0.5-0.1,0.9-0.6,0.8-1.2
		C15.9,31.3,15.3,30.9,14.8,31z"/>
	<path d="M34.2,32l-5-1c-0.5-0.1-1.1,0.2-1.2,0.8c-0.1,0.5,0.2,1.1,0.8,1.2l5,1c0.1,0,0.1,0,0.2,0c0.5,0,0.9-0.3,1-0.8
		C35.1,32.7,34.7,32.1,34.2,32z"/>
</g>
</svg>
