<?xml version="1.0" encoding="UTF-8"?>
<svg xmlns="http://www.w3.org/2000/svg" xmlns:xlink="http://www.w3.org/1999/xlink" width="300pt" height="400pt" viewBox="0 0 300 400" version="1.1">
<g id="surface1">
<path style=" stroke:none;fill-rule:nonzero;fill:rgb(0%,0%,0%);fill-opacity:1;" d="M 297.953125 2.726562 C 295.226562 -0.910156 291.136719 -0.910156 288.410156 2.726562 L 272.726562 22.726562 C 272.726562 21.816406 272.046875 21.816406 272.046875 20.910156 L 257.046875 1.816406 C 254.316406 -1.816406 250.226562 -1.816406 247.5 1.816406 C 244.773438 5.453125 244.773438 10.910156 247.5 14.546875 L 262.5 33.636719 C 262.5 33.636719 263.183594 33.636719 263.183594 34.546875 L 238.636719 69.089844 L 236.589844 66.363281 C 235.226562 64.546875 232.5 63.636719 230.453125 63.636719 L 196.363281 72.726562 C 195 72.726562 193.636719 73.636719 192.953125 75.453125 L 182.046875 90 C 175.226562 88.183594 168.410156 90 162.953125 97.273438 L 131.589844 139.089844 C 128.863281 142.726562 128.863281 148.183594 131.589844 151.816406 L 152.046875 179.089844 C 154.773438 182.726562 158.863281 182.726562 161.589844 179.089844 C 164.316406 175.453125 164.316406 170 161.589844 166.363281 L 145.910156 145.453125 L 172.5 110 C 175.226562 106.363281 179.316406 106.363281 182.046875 110 L 197.046875 130 C 199.773438 133.636719 199.773438 139.089844 197.046875 142.726562 L 104.316406 266.363281 L 90.683594 284.546875 C 90 285.453125 89.316406 286.363281 89.316406 287.273438 L 59.316406 375.453125 C 57.273438 380.910156 51.816406 382.726562 48.410156 380 L 17.726562 352.726562 C 15 350.910156 13.636719 347.273438 13.636719 344.546875 C 13.636719 341.816406 14.316406 339.089844 15.683594 337.273438 L 50.453125 290.910156 C 51.136719 290 52.5 289.089844 53.863281 288.183594 L 60 283.636719 L 70.226562 297.273438 C 71.589844 299.089844 73.636719 300 75 300 C 76.363281 300 78.410156 299.089844 79.773438 297.273438 C 82.5 293.636719 82.5 288.183594 79.773438 284.546875 L 70.226562 271.816406 L 77.726562 257.273438 C 80.453125 251.816406 81.816406 244.546875 81.816406 238.183594 C 81.816406 233.636719 83.183594 230 85.226562 226.363281 L 120.683594 179.089844 C 123.410156 175.453125 123.410156 170 120.683594 166.363281 C 117.953125 162.726562 113.863281 162.726562 111.136719 166.363281 L 75.683594 213.636719 C 70.910156 220 68.183594 229.089844 68.183594 238.183594 C 68.183594 241.816406 67.5 244.546875 66.136719 247.273438 L 58.636719 262.726562 C 57.273438 265.453125 55.910156 267.273438 53.863281 268.183594 L 47.726562 271.816406 C 45 273.636719 42.953125 275.453125 40.910156 278.183594 L 6.136719 324.546875 C 2.046875 330 0 336.363281 0 344.546875 C 0 353.636719 3.410156 362.726562 9.546875 368.183594 L 40.226562 395.453125 C 43.636719 398.183594 47.726562 400 51.816406 400 C 60 400 67.5 393.636719 70.910156 383.636719 L 96.816406 308.183594 L 121.363281 347.273438 C 124.773438 351.816406 128.863281 354.546875 133.636719 354.546875 C 142.5 354.546875 150 344.546875 150 332.726562 L 150 331.816406 C 150 326.363281 148.636719 321.816406 146.589844 318.183594 L 130.910156 293.636719 C 138.410156 283.636719 139.089844 266.363281 132.273438 255.453125 L 132.953125 254.546875 C 145.226562 267.273438 160.910156 273.636719 177.273438 273.636719 C 193.636719 273.636719 210 267.273438 222.273438 253.636719 C 225 250.910156 225.683594 245.453125 223.636719 241.816406 L 210 214.546875 C 207.953125 210.910156 203.863281 209.089844 201.136719 211.816406 C 195 215.453125 186.136719 218.183594 177.273438 218.183594 C 173.183594 218.183594 170.453125 221.816406 170.453125 227.273438 C 170.453125 232.726562 173.183594 236.363281 177.273438 236.363281 C 186.136719 236.363281 195 234.546875 202.5 230 L 209.316406 243.636719 C 189.546875 260 162.273438 259.089844 143.183594 240.910156 L 206.589844 156.363281 C 212.046875 149.089844 213.410156 140 212.046875 130.910156 L 243.410156 89.089844 L 297.953125 16.363281 C 300.683594 11.816406 300.683594 6.363281 297.953125 2.726562 Z M 136.363281 331.816406 L 136.363281 332.726562 C 136.363281 335.453125 133.636719 337.273438 132.273438 334.546875 L 105 290.910156 L 109.089844 285.453125 L 136.363281 329.089844 C 136.363281 330 136.363281 330.910156 136.363281 331.816406 Z M 123.410156 272.726562 C 123.410156 275.453125 122.726562 277.273438 121.363281 279.089844 L 117.953125 273.636719 L 122.046875 268.183594 C 123.410156 269.089844 123.410156 270.910156 123.410156 272.726562 Z M 204.546875 114.546875 L 193.636719 100 L 201.136719 90 L 228.410156 82.726562 Z M 204.546875 114.546875 "/>
</g>
</svg>
