<?xml version="1.0" encoding="UTF-8"?>
<svg xmlns="http://www.w3.org/2000/svg" xmlns:xlink="http://www.w3.org/1999/xlink" width="300pt" height="400pt" viewBox="0 0 300 400" version="1.1">
<g id="surface1">
<path style=" stroke:none;fill-rule:nonzero;fill:rgb(0%,0%,0%);fill-opacity:1;" d="M 245.453125 209.089844 C 241.363281 209.089844 238.636719 212.726562 238.636719 218.183594 L 238.636719 263.636719 C 238.636719 279.089844 229.773438 290.910156 218.183594 290.910156 C 214.089844 290.910156 211.363281 294.546875 211.363281 300 C 211.363281 345.453125 184.089844 381.816406 150 381.816406 C 115.910156 381.816406 88.636719 345.453125 88.636719 300 C 88.636719 254.546875 115.910156 218.183594 150 218.183594 C 174.546875 218.183594 196.363281 237.273438 205.910156 267.273438 C 207.273438 271.816406 211.363281 273.636719 214.773438 271.816406 C 218.183594 270 219.546875 264.546875 218.183594 260 C 205.910156 223.636719 179.316406 200 149.316406 200 C 107.726562 200 74.316406 244.546875 74.316406 300 C 74.316406 355.453125 107.726562 400 149.316406 400 C 188.863281 400 220.910156 359.089844 224.316406 308.183594 C 240 303.636719 251.589844 285.453125 251.589844 263.636719 L 251.589844 218.183594 C 252.273438 212.726562 249.546875 209.089844 245.453125 209.089844 Z M 245.453125 209.089844 "/>
<path style=" stroke:none;fill-rule:nonzero;fill:rgb(0%,0%,0%);fill-opacity:1;" d="M 156.816406 254.546875 C 156.816406 259.566406 153.765625 263.636719 150 263.636719 C 146.234375 263.636719 143.183594 259.566406 143.183594 254.546875 C 143.183594 249.523438 146.234375 245.453125 150 245.453125 C 153.765625 245.453125 156.816406 249.523438 156.816406 254.546875 Z M 156.816406 254.546875 "/>
<path style=" stroke:none;fill-rule:nonzero;fill:rgb(0%,0%,0%);fill-opacity:1;" d="M 156.816406 345.453125 C 156.816406 350.476562 153.765625 354.546875 150 354.546875 C 146.234375 354.546875 143.183594 350.476562 143.183594 345.453125 C 143.183594 340.433594 146.234375 336.363281 150 336.363281 C 153.765625 336.363281 156.816406 340.433594 156.816406 345.453125 Z M 156.816406 345.453125 "/>
<path style=" stroke:none;fill-rule:nonzero;fill:rgb(0%,0%,0%);fill-opacity:1;" d="M 190.910156 300 C 190.910156 305.019531 187.855469 309.089844 184.089844 309.089844 C 180.324219 309.089844 177.273438 305.019531 177.273438 300 C 177.273438 294.980469 180.324219 290.910156 184.089844 290.910156 C 187.855469 290.910156 190.910156 294.980469 190.910156 300 Z M 190.910156 300 "/>
<path style=" stroke:none;fill-rule:nonzero;fill:rgb(0%,0%,0%);fill-opacity:1;" d="M 122.726562 300 C 122.726562 305.019531 119.675781 309.089844 115.910156 309.089844 C 112.144531 309.089844 109.089844 305.019531 109.089844 300 C 109.089844 294.980469 112.144531 290.910156 115.910156 290.910156 C 119.675781 290.910156 122.726562 294.980469 122.726562 300 Z M 122.726562 300 "/>
<path style=" stroke:none;fill-rule:nonzero;fill:rgb(0%,0%,0%);fill-opacity:1;" d="M 178.925781 261.882812 C 176.261719 258.332031 171.945312 258.332031 169.28125 261.882812 C 166.621094 265.429688 166.621094 271.1875 169.28125 274.738281 C 171.945312 278.289062 176.261719 278.289062 178.925781 274.738281 C 181.585938 271.1875 181.585938 265.429688 178.925781 261.882812 Z M 178.925781 261.882812 "/>
<path style=" stroke:none;fill-rule:nonzero;fill:rgb(0%,0%,0%);fill-opacity:1;" d="M 130.710938 325.257812 C 128.050781 321.707031 123.730469 321.707031 121.070312 325.257812 C 118.40625 328.804688 118.40625 334.5625 121.070312 338.113281 C 123.730469 341.664062 128.050781 341.664062 130.710938 338.113281 C 133.375 334.5625 133.375 328.804688 130.710938 325.257812 Z M 130.710938 325.257812 "/>
<path style=" stroke:none;fill-rule:nonzero;fill:rgb(0%,0%,0%);fill-opacity:1;" d="M 178.582031 325.710938 C 175.917969 322.160156 171.601562 322.160156 168.9375 325.710938 C 166.277344 329.261719 166.277344 335.019531 168.9375 338.566406 C 171.601562 342.117188 175.917969 342.117188 178.582031 338.566406 C 181.242188 335.019531 181.242188 329.261719 178.582031 325.710938 Z M 178.582031 325.710938 "/>
<path style=" stroke:none;fill-rule:nonzero;fill:rgb(0%,0%,0%);fill-opacity:1;" d="M 131.054688 261.421875 C 128.394531 257.871094 124.074219 257.871094 121.414062 261.421875 C 118.75 264.972656 118.75 270.730469 121.414062 274.277344 C 124.074219 277.828125 128.394531 277.828125 131.054688 274.277344 C 133.71875 270.730469 133.71875 264.972656 131.054688 261.421875 Z M 131.054688 261.421875 "/>
<path style=" stroke:none;fill-rule:nonzero;fill:rgb(0%,0%,0%);fill-opacity:1;" d="M 143.183594 145.453125 C 143.183594 125.453125 130.910156 109.089844 115.910156 109.089844 C 100.910156 109.089844 88.636719 125.453125 88.636719 145.453125 C 88.636719 165.453125 100.910156 181.816406 115.910156 181.816406 C 130.910156 181.816406 143.183594 165.453125 143.183594 145.453125 Z M 102.273438 145.453125 C 102.273438 135.453125 108.410156 127.273438 115.910156 127.273438 C 123.410156 127.273438 129.546875 135.453125 129.546875 145.453125 C 129.546875 155.453125 123.410156 163.636719 115.910156 163.636719 C 108.410156 163.636719 102.273438 155.453125 102.273438 145.453125 Z M 102.273438 145.453125 "/>
<path style=" stroke:none;fill-rule:nonzero;fill:rgb(0%,0%,0%);fill-opacity:1;" d="M 211.363281 145.453125 C 211.363281 125.453125 199.089844 109.089844 184.089844 109.089844 C 169.089844 109.089844 156.816406 125.453125 156.816406 145.453125 C 156.816406 165.453125 169.089844 181.816406 184.089844 181.816406 C 199.089844 181.816406 211.363281 165.453125 211.363281 145.453125 Z M 170.453125 145.453125 C 170.453125 135.453125 176.589844 127.273438 184.089844 127.273438 C 191.589844 127.273438 197.726562 135.453125 197.726562 145.453125 C 197.726562 155.453125 191.589844 163.636719 184.089844 163.636719 C 176.589844 163.636719 170.453125 155.453125 170.453125 145.453125 Z M 170.453125 145.453125 "/>
<path style=" stroke:none;fill-rule:nonzero;fill:rgb(0%,0%,0%);fill-opacity:1;" d="M 252.273438 100 C 248.183594 44.546875 213.410156 0 170.453125 0 L 129.546875 0 C 86.589844 0 51.816406 44.546875 48.410156 100 L 47.726562 100 C 36.136719 100 27.273438 111.816406 27.273438 127.273438 L 27.273438 163.636719 C 27.273438 179.089844 36.136719 190.910156 47.726562 190.910156 L 47.726562 263.636719 C 47.726562 271.816406 49.089844 279.089844 52.5 286.363281 C 53.863281 289.089844 55.910156 290.910156 57.953125 290.910156 C 59.316406 290.910156 60 290.910156 61.363281 290 C 64.773438 287.273438 65.453125 281.816406 64.089844 277.273438 C 62.046875 272.726562 61.363281 268.183594 61.363281 263.636719 L 61.363281 109.089844 C 61.363281 59.089844 92.046875 18.183594 129.546875 18.183594 L 170.453125 18.183594 C 207.953125 18.183594 238.636719 59.089844 238.636719 109.089844 L 238.636719 181.816406 C 238.636719 187.273438 241.363281 190.910156 245.453125 190.910156 L 252.273438 190.910156 C 263.863281 190.910156 272.726562 179.089844 272.726562 163.636719 L 272.726562 127.273438 C 272.726562 111.816406 263.863281 100 252.273438 100 Z M 40.910156 163.636719 L 40.910156 127.273438 C 40.910156 121.816406 43.636719 118.183594 47.726562 118.183594 L 47.726562 172.726562 C 43.636719 172.726562 40.910156 169.089844 40.910156 163.636719 Z M 259.089844 163.636719 C 259.089844 169.089844 256.363281 172.726562 252.273438 172.726562 L 252.273438 118.183594 C 256.363281 118.183594 259.089844 121.816406 259.089844 127.273438 Z M 259.089844 163.636719 "/>
</g>
</svg>
