<?xml version="1.0" encoding="UTF-8"?>
<svg xmlns="http://www.w3.org/2000/svg" xmlns:xlink="http://www.w3.org/1999/xlink" width="300pt" height="400pt" viewBox="0 0 300 400" version="1.1">
<g id="surface1">
<path style=" stroke:none;fill-rule:nonzero;fill:rgb(0%,0%,0%);fill-opacity:1;" d="M 162.273438 54.546875 C 164.316406 52.726562 163.636719 47.273438 160.910156 47.273438 L 156.816406 47.273438 C 155.453125 47.273438 154.773438 46.363281 154.089844 44.546875 L 152.726562 39.089844 C 152.046875 35.453125 147.953125 35.453125 147.273438 39.089844 L 145.910156 44.546875 C 145.226562 46.363281 144.546875 47.273438 143.183594 47.273438 L 139.089844 47.273438 C 136.363281 47.273438 135 51.816406 137.726562 54.546875 L 141.136719 58.183594 C 141.816406 59.089844 142.5 60.910156 142.5 62.726562 L 141.136719 68.183594 C 140.453125 71.816406 143.183594 74.546875 145.226562 72.726562 L 148.636719 69.089844 C 149.316406 68.183594 150.683594 68.183594 152.046875 69.089844 L 155.453125 72.726562 C 157.5 74.546875 160.910156 71.816406 159.546875 68.183594 L 158.183594 62.726562 C 157.5 60.910156 158.183594 59.089844 159.546875 58.183594 Z M 162.273438 54.546875 "/>
<path style=" stroke:none;fill-rule:nonzero;fill:rgb(0%,0%,0%);fill-opacity:1;" d="M 136.363281 136.363281 C 136.363281 141.382812 133.3125 145.453125 129.546875 145.453125 C 125.78125 145.453125 122.726562 141.382812 122.726562 136.363281 C 122.726562 131.34375 125.78125 127.273438 129.546875 127.273438 C 133.3125 127.273438 136.363281 131.34375 136.363281 136.363281 Z M 136.363281 136.363281 "/>
<path style=" stroke:none;fill-rule:nonzero;fill:rgb(0%,0%,0%);fill-opacity:1;" d="M 177.273438 136.363281 C 177.273438 141.382812 174.21875 145.453125 170.453125 145.453125 C 166.6875 145.453125 163.636719 141.382812 163.636719 136.363281 C 163.636719 131.34375 166.6875 127.273438 170.453125 127.273438 C 174.21875 127.273438 177.273438 131.34375 177.273438 136.363281 Z M 177.273438 136.363281 "/>
<path style=" stroke:none;fill-rule:nonzero;fill:rgb(0%,0%,0%);fill-opacity:1;" d="M 238.636719 267.273438 L 204.546875 258.183594 L 204.546875 227.273438 C 204.546875 223.636719 203.183594 220.910156 201.136719 219.089844 C 199.089844 217.273438 196.363281 217.273438 194.316406 219.089844 L 150 252.726562 L 105.683594 219.089844 C 103.636719 217.273438 100.910156 217.273438 98.863281 219.089844 C 96.816406 220.910156 95.453125 223.636719 95.453125 227.273438 L 95.453125 258.183594 L 61.363281 267.273438 C 45.683594 271.816406 34.089844 290 34.089844 311.816406 L 34.089844 372.726562 C 34.089844 388.183594 42.953125 400 54.546875 400 L 245.453125 400 C 257.046875 400 265.910156 388.183594 265.910156 372.726562 L 265.910156 311.816406 C 265.910156 290 254.316406 270.910156 238.636719 267.273438 Z M 156.816406 269.089844 L 190.910156 242.726562 L 190.910156 258.183594 L 156.816406 284.546875 Z M 109.089844 242.726562 L 143.183594 269.089844 L 143.183594 284.546875 L 109.089844 258.183594 Z M 252.273438 372.726562 C 252.273438 378.183594 249.546875 381.816406 245.453125 381.816406 L 54.546875 381.816406 C 50.453125 381.816406 47.726562 378.183594 47.726562 372.726562 L 47.726562 311.816406 C 47.726562 299.089844 54.546875 287.273438 64.089844 285.453125 L 102.953125 275.453125 L 143.183594 306.363281 L 143.183594 354.546875 C 143.183594 360 145.910156 363.636719 150 363.636719 C 154.089844 363.636719 156.816406 360 156.816406 354.546875 L 156.816406 305.453125 L 197.046875 274.546875 L 235.910156 284.546875 C 245.453125 287.273438 252.273438 298.183594 252.273438 310.910156 Z M 252.273438 372.726562 "/>
<path style=" stroke:none;fill-rule:nonzero;fill:rgb(0%,0%,0%);fill-opacity:1;" d="M 143.183594 190.910156 L 156.816406 190.910156 C 160.910156 190.910156 163.636719 187.273438 163.636719 181.816406 C 163.636719 176.363281 160.910156 172.726562 156.816406 172.726562 L 143.183594 172.726562 C 139.089844 172.726562 136.363281 176.363281 136.363281 181.816406 C 136.363281 187.273438 139.089844 190.910156 143.183594 190.910156 Z M 143.183594 190.910156 "/>
<path style=" stroke:none;fill-rule:nonzero;fill:rgb(0%,0%,0%);fill-opacity:1;" d="M 75 118.183594 L 82.5 118.183594 C 83.863281 138.183594 86.589844 161.816406 86.589844 161.816406 C 87.953125 177.273438 92.726562 191.816406 99.546875 203.636719 L 100.910156 206.363281 C 112.5 225.453125 130.226562 236.363281 149.316406 236.363281 C 168.410156 236.363281 185.453125 225.453125 197.726562 206.363281 L 199.089844 203.636719 C 206.589844 191.816406 210.683594 177.273438 212.046875 162.726562 C 212.046875 162.726562 213.410156 150.910156 214.773438 137.273438 C 215.453125 132.726562 212.726562 128.183594 208.636719 127.273438 C 205.226562 126.363281 201.136719 130 201.136719 135.453125 C 199.773438 149.089844 198.410156 160 198.410156 160 C 197.726562 171.816406 193.636719 182.726562 188.183594 191.816406 L 186.816406 194.546875 C 178.636719 210 165 218.183594 150 218.183594 C 135 218.183594 121.363281 210 112.5 194.546875 L 111.136719 191.816406 C 105.683594 182.726562 101.589844 171.816406 100.910156 159.089844 C 100.910156 159.089844 96.816406 127.273438 96.136719 108.183594 C 96.136719 103.636719 92.726562 100 89.316406 100 L 82.5 100 C 85.910156 54.546875 115.226562 18.183594 150.683594 18.183594 C 186.136719 18.183594 214.773438 54.546875 218.863281 100 L 211.363281 100 C 205.226562 100 199.089844 98.183594 192.273438 93.636719 C 167.726562 78.183594 134.316406 78.183594 109.773438 93.636719 C 106.363281 95.453125 105 100.910156 106.363281 105.453125 C 107.726562 110 111.816406 111.816406 115.226562 110 C 136.363281 96.363281 165 96.363281 186.136719 110 C 194.316406 115.453125 203.183594 118.183594 210.683594 118.183594 L 225 118.183594 C 229.089844 118.183594 231.816406 114.546875 231.816406 109.089844 C 231.816406 49.089844 195 0 150 0 C 105 0 68.183594 49.089844 68.183594 109.089844 C 68.183594 114.546875 70.910156 118.183594 75 118.183594 Z M 75 118.183594 "/>
<path style=" stroke:none;fill-rule:nonzero;fill:rgb(0%,0%,0%);fill-opacity:1;" d="M 100.910156 281.816406 L 66.816406 290.910156 C 63.410156 291.816406 60.683594 296.363281 61.363281 301.816406 C 62.046875 306.363281 64.773438 309.089844 68.183594 309.089844 C 68.863281 309.089844 68.863281 309.089844 69.546875 309.089844 L 103.636719 300 C 107.046875 299.089844 109.773438 294.546875 109.089844 289.089844 C 108.410156 284.546875 104.316406 280.910156 100.910156 281.816406 Z M 100.910156 281.816406 "/>
<path style=" stroke:none;fill-rule:nonzero;fill:rgb(0%,0%,0%);fill-opacity:1;" d="M 233.183594 290.910156 L 199.089844 281.816406 C 195.683594 280.910156 191.589844 283.636719 190.910156 289.089844 C 190.226562 293.636719 192.273438 299.089844 196.363281 300 L 230.453125 309.089844 C 231.136719 309.089844 231.136719 309.089844 231.816406 309.089844 C 235.226562 309.089844 237.953125 306.363281 238.636719 301.816406 C 239.316406 297.273438 236.589844 291.816406 233.183594 290.910156 Z M 233.183594 290.910156 "/>
</g>
</svg>
